<?xml version="1.0" encoding="utf-8"?>
<!-- Generator: Adobe Illustrator 16.0.0, SVG Export Plug-In . SVG Version: 6.00 Build 0)  -->
<!DOCTYPE svg PUBLIC "-//W3C//DTD SVG 1.1//EN" "http://www.w3.org/Graphics/SVG/1.1/DTD/svg11.dtd">
<svg version="1.1" id="Layer_1" xmlns="http://www.w3.org/2000/svg" xmlns:xlink="http://www.w3.org/1999/xlink" x="0px" y="0px"
	 width="197.5px" height="153px" viewBox="0 0 197.5 153" enable-background="new 0 0 197.5 153" xml:space="preserve">
<path fill="#212121" d="M62.705,136.896l-26.242,2.207l-16.188-10.301L8.993,115.067l25.017,1.226l19.621-9.319l19.375,5.887
	l2.207,9.074l-3.434,2.207L62.705,136.896z M38.67,82.938L23.709,69.203l-2.208-30.902l32.13-28.449
	c0,0-19.621,25.016-14.961,41.203c3.434,14.716,13.734,26.242,13.734,26.242l20.602,13.734L38.67,82.938z M39.896,95.691
	c3.434,0,3.434,4.415,0,4.415C37.443,100.106,37.443,95.691,39.896,95.691z M50.197,42.961c3.434,0,3.434,4.66,0,4.66
	C47.744,47.621,47.744,42.961,50.197,42.961z M191.957,86.372v4.659l-36.544,9.075v1.227h-4.66h-0.98l-9.32,26.242l-31.884,16.188
	l7.849-20.602l-18.149,18.149l-44.637,4.66l20.602-11.528l9.074-11.281l-2.207-4.66l-3.434,1.226l-2.453-6.866l4.66-1.227
	l-3.434-8.094l11.527-12.509l-11.527-9.074l5.641-6.867l12.754-8.094l21.583-4.659h-9.075l-1.226-3.435l14.96-4.414l-2.207-11.527
	l-10.301,4.66l6.867-10.301l14.716,0.98l10.301,14.961h23.055v1.227l-21.829,4.414l2.209,1.227l2.452,6.867l-3.435-1.226
	l-2.452,9.319h-4.415l0.981,6.867l-10.301,11.282l13.734,3.434l8.094-4.415l8.094-1.227v3.435L191.957,86.372z M74.232,52.035
	c2.207,0,2.207,4.66,0,4.66C70.799,56.695,70.799,52.035,74.232,52.035z M88.948,16.719c3.433,0,3.433,3.434,0,3.434
	C86.74,20.152,86.74,16.719,88.948,16.719z M160.072,72.638c3.435,0,3.435,4.659,0,4.659
	C157.62,77.297,157.62,72.638,160.072,72.638z M185.09,66.996c2.452,0,2.452,3.434,0,3.434
	C181.655,70.43,181.655,66.996,185.09,66.996z"/>
</svg>
