<?xml version="1.0" encoding="utf-8"?>
<!-- Generator: Adobe Illustrator 16.0.0, SVG Export Plug-In . SVG Version: 6.00 Build 0)  -->
<!DOCTYPE svg PUBLIC "-//W3C//DTD SVG 1.1//EN" "http://www.w3.org/Graphics/SVG/1.1/DTD/svg11.dtd">
<svg version="1.1" id="Capa_1" xmlns="http://www.w3.org/2000/svg" xmlns:xlink="http://www.w3.org/1999/xlink" x="0px" y="0px"
	 width="184.681px" height="180.02px" viewBox="0 0 184.681 180.02" enable-background="new 0 0 184.681 180.02"
	 xml:space="preserve">
<g>
	<path fill="#FFFFFF" d="M184.68,80.444l-12.017,52.24l-70.88,47.335l-83.143-28.45L0,99.574l33.11-59.353h47.335l4.661-21.337
		L106.443,0l11.772,14.47L92.218,25.996l-4.66,14.226l51.995-11.772L184.68,80.444z M165.551,99.574
		c-4.66,9.565-11.773,16.679-11.773,16.679l-2.207,9.318l-4.906,2.208l-4.659-9.319l-4.66,2.207l2.207,12.018l-9.32,4.905
		l-4.905-16.923h-4.415v16.923h-19.13v-14.226l-4.66-2.697l-2.452,19.131l-14.226-2.208l-2.452-16.923H70.88l-2.207,12.018H56.655
		v-12.018h-7.112l-2.207,9.811l-7.113-2.698v-7.112L18.64,104.234c2.698,19.13,23.79,37.771,23.79,37.771l2.453-9.32l11.772,2.207
		v12.018l7.113,4.66v-9.564h12.018l2.207,12.018h7.113v-9.564h12.017v9.564h6.867l2.453-9.564h11.772v7.111h4.906l2.207-9.564
		l9.565-2.207v4.66h4.66v-4.66l4.905-7.113l2.207,7.113C163.343,125.571,165.551,99.574,165.551,99.574 M44.883,92.463
		c9.565,11.771,28.695,18.884,35.562,9.318c4.661-9.318,7.113-32.863,7.113-32.863l-33.11-2.698
		C54.448,66.22,33.11,80.444,44.883,92.463 M85.106,118.46l12.017-4.905h11.773L97.123,94.67L85.106,118.46z M101.783,71.125
		c0,0,2.207,21.338,7.113,30.656c7.112,9.565,28.45,2.453,37.769-9.318c9.565-12.019-9.319-26.243-9.319-26.243L101.783,71.125z"/>
</g>
</svg>
