<?xml version="1.0" encoding="utf-8"?>
<!-- Generator: Adobe Illustrator 16.0.0, SVG Export Plug-In . SVG Version: 6.00 Build 0)  -->
<!DOCTYPE svg PUBLIC "-//W3C//DTD SVG 1.1//EN" "http://www.w3.org/Graphics/SVG/1.1/DTD/svg11.dtd">
<svg version="1.1" id="Capa_1" xmlns="http://www.w3.org/2000/svg" xmlns:xlink="http://www.w3.org/1999/xlink" x="0px" y="0px"
	 width="136.119px" height="191.057px" viewBox="0 0 136.119 191.057" enable-background="new 0 0 136.119 191.057"
	 xml:space="preserve">
<g>
	<path fill="#212121" d="M85.104,191.057l1.718-49.297l-5.642,1.962l-1.717,39.732H66.22l3.679-41.694l-5.641-1.717l-3.679,43.411
		l-9.565-3.924V141.76l-3.924-3.679l-5.641,39.731l-9.32-1.962v-45.373L0,98.349L11.282,19.13L122.875,0l13.244,126.799
		l-38.016,7.358l2.207,49.297L85.104,191.057z M45.373,51.014c-3.924,0-15.206,2.207-16.923,2.207
		c-1.962,1.717-7.603,16.923-9.565,20.357c-1.962,2.207-3.679,13.489,0,15.451c3.679,3.679,15.206,9.32,15.206,9.32h9.565
		c9.075-1.962,16.923-11.282,12.999-22.564l-1.717-3.924C54.938,71.861,49.297,51.014,45.373,51.014 M58.372,122.875l5.886,1.962
		l1.962-11.527v13.489l7.358,3.679l1.962-30.167l-11.282-3.924L58.372,122.875z M115.271,89.029c1.962-1.962,1.962-13.244,0-15.451
		c-1.962-3.434-7.603-18.64-11.526-20.357c-1.718,0-12.999-2.207-14.717-2.207c-3.924,0-11.526,20.847-11.526,20.847l-1.962,3.924
		c-1.962,11.282,3.924,20.602,15.206,22.564h9.564C100.311,98.349,111.593,92.708,115.271,89.029"/>
</g>
</svg>
