<?xml version="1.0" encoding="utf-8"?>
<!-- Generator: Adobe Illustrator 16.0.0, SVG Export Plug-In . SVG Version: 6.00 Build 0)  -->
<!DOCTYPE svg PUBLIC "-//W3C//DTD SVG 1.1//EN" "http://www.w3.org/Graphics/SVG/1.1/DTD/svg11.dtd">
<svg version="1.1" id="Capa_1" xmlns="http://www.w3.org/2000/svg" xmlns:xlink="http://www.w3.org/1999/xlink" x="0px" y="0px"
	 width="139.798px" height="144.703px" viewBox="0 0 139.798 144.703" enable-background="new 0 0 139.798 144.703"
	 xml:space="preserve">
<path fill="#212121" d="M14.96,84.859l-4.905,25.017l12.508,22.319h44.882l27.47,12.508l24.771-27.469l-4.905-22.564L92.218,67.446
	l-32.374-7.603L14.96,84.859z M127.29,64.748l-10.057,2.698l-4.905,14.961l14.962,14.96l12.508-12.508V67.446l-7.604-22.564
	L127.29,64.748z M2.453,49.787L0,62.295L14.96,74.804l12.508-10.056l-4.905-12.263l-2.698-22.564L2.453,49.787z M99.82,32.374
	L89.765,47.335l5.151,17.413l9.81,2.698l17.659-17.659l-12.508-27.469l-10.057-9.81V32.374z M32.374,25.016L29.921,42.43
	L42.43,54.938h7.603l7.358-14.961l-4.905-12.508L50.033,4.905L32.374,25.016z M87.313,0L74.805,17.413L62.296,27.469v25.016
	l10.055,4.905l14.961-4.905l4.905-20.111l-4.905-10.056V0z"/>
</svg>
