<?xml version="1.0" encoding="utf-8"?>
<!-- Generator: Adobe Illustrator 16.0.0, SVG Export Plug-In . SVG Version: 6.00 Build 0)  -->
<!DOCTYPE svg PUBLIC "-//W3C//DTD SVG 1.1//EN" "http://www.w3.org/Graphics/SVG/1.1/DTD/svg11.dtd">
<svg version="1.1" id="Layer_1" xmlns="http://www.w3.org/2000/svg" xmlns:xlink="http://www.w3.org/1999/xlink" x="0px" y="0px"
	 width="136.119px" height="191.057px" viewBox="0 0 136.119 191.057" enable-background="new 0 0 136.119 191.057"
	 xml:space="preserve">
<path fill="#212121" d="M126.501,121.081l-26.733-9.564l9.811,46.107l-14.716,21.828l-12.018,2.453l-7.357-31.639H63.47
	l-2.453,31.639l-17.168,2.453l-12.018-36.545l4.905-24.279l-2.453-9.566l-9.811,4.66l-14.47,7.357l-9.811-7.357l4.905-16.922
	l16.923-12.018l21.828-12.264l-14.47-14.47V23.958L58.564,7.035l34.091,12.018l9.565,26.733v17.168L90.202,74.972l36.299,26.734
	l7.357,12.262L126.501,121.081z M58.564,45.786c0-2.453-2.453-4.905-4.905-4.905c-2.453,0-4.905,2.452-4.905,4.905
	c0,4.905,2.452,7.357,4.905,7.357C56.111,53.144,58.564,50.691,58.564,45.786z M82.845,45.786c0-2.453-2.452-4.905-4.905-4.905
	c-2.452,0-4.905,2.452-4.905,4.905c0,4.905,2.453,7.357,4.905,7.357C80.393,53.144,82.845,50.691,82.845,45.786z"/>
</svg>
