<?xml version="1.0" encoding="utf-8"?>
<!-- Generator: Adobe Illustrator 16.0.0, SVG Export Plug-In . SVG Version: 6.00 Build 0)  -->
<!DOCTYPE svg PUBLIC "-//W3C//DTD SVG 1.1//EN" "http://www.w3.org/Graphics/SVG/1.1/DTD/svg11.dtd">
<svg version="1.1" id="Layer_1" xmlns="http://www.w3.org/2000/svg" xmlns:xlink="http://www.w3.org/1999/xlink" x="0px" y="0px"
	 width="299px" height="278.5px" viewBox="0 0 299 278.5" enable-background="new 0 0 299 278.5" xml:space="preserve">
<path fill="#212121" d="M51.733,118.836l26.733,9.565l32.374,1.717l30.412-11.282l-7.603-21.092l59.106,19.13l-26.733,26.733
	l-70.389,22.809l-64.748-17.168L4.152,118.836l53.222-19.13L51.733,118.836z M91.711,15.827l23.054-11.282l34.091,20.848
	l15.207,43.901l-41.694-34.337l-5.887,11.527l3.925,36.053l13.244,30.658l-26.734,11.281l-30.412-1.961l-17.168-9.32L91.711,15.827z
	"/>
<path fill="#212121" d="M246.372,115.36c0,0-40.376,27.888-52.394,37.712l3.969,4.009l-6.082,2.224l-10.981,10.87l-12.253,22.136
	l-39.517,62.925l-16.232,20.207l-16.99-1.127l0.124-24.278l-17.011,3.034l10.038-29.951l21.247-17.235l30.287-21.696l38.287-26.164
	l7.177-12.971l3.969,4.009l50.518-43.791l44.501-54.056l10.899,5.086L246.372,115.36z"/>
</svg>
